<?xml version="1.0" encoding="utf-8"?>
<!-- Generator: Adobe Illustrator 24.2.1, SVG Export Plug-In . SVG Version: 6.00 Build 0)  -->
<svg version="1.1" id="Vrstva_1" xmlns="http://www.w3.org/2000/svg" xmlns:xlink="http://www.w3.org/1999/xlink" x="0px" y="0px"
	 viewBox="0 0 1200 1200" style="enable-background:new 0 0 1200 1200;" xml:space="preserve">
<style type="text/css">
	.st0{fill:#FFFFFF;stroke:#CFCECE;stroke-width:13;stroke-miterlimit:10;}
	.st1{fill:none;stroke:#FAB61F;stroke-width:16;stroke-linecap:round;stroke-linejoin:round;stroke-miterlimit:10;}
</style>
<circle class="st0" cx="601.98" cy="536.93" r="394.85"/>
<path class="st1" d="M594.5,736.67c0.69-0.88-55.51-57.03-59.52-61.36c-30.73-33.18-61.29-66.66-88.3-102.99
	c-13.72-18.44-26.79-38.27-31.19-60.83c-7.52-38.53,13.28-80.3,45.35-101.78c27.28-18.28,73.58-15.93,99.28,4.88
	c24.03,19.46,40.45,51.18,43.6,58.08c0,0,18.41-45.66,56.4-63.13c24.66-11.33,55.31-15.21,80.37-2.87
	c15.19,7.48,27.18,20.5,35.6,35.18c9.08,15.84,14.36,34.03,13.89,52.28c-0.79,30.4-17.2,58.37-37.17,81.3
	c-26.09,29.96-56.27,57.23-85.29,84.27C620.02,703.97,594.5,736.67,594.5,736.67z"/>
</svg>
